<svg width="521" height="521" viewBox="0 0 521 521" fill="none" xmlns="http://www.w3.org/2000/svg">
    <g clip-path="url(#clip0_462_76)">
    <rect x="5" y="4" width="512" height="512" rx="20" fill="#000842"/>
    <path d="M108.445 114.4C120.179 113.867 131.645 113.6 142.845 113.6C154.312 113.6 166.312 114.8 178.845 117.2C191.645 119.6 204.179 124.133 216.445 130.8C228.979 137.2 239.512 145.6 248.045 156C256.845 166.133 263.912 179.6 269.245 196.4C274.579 213.2 277.245 233.6 277.245 257.6C277.245 281.6 273.245 303.2 265.245 322.4C257.512 341.333 246.845 355.867 233.245 366C206.845 385.733 174.979 395.6 137.645 395.6C124.579 395.6 110.845 395.067 96.4453 394H76.4453V114.4H108.445ZM109.645 390.8C115.245 391.333 122.312 391.6 130.845 391.6C139.379 391.6 145.779 391.467 150.045 391.2C154.312 390.933 160.179 389.867 167.645 388C175.112 385.867 182.045 383.067 188.445 379.6C194.845 376.133 201.512 371.067 208.445 364.4C215.645 357.467 221.779 349.333 226.845 340C238.312 318.133 244.045 289.6 244.045 254.4C244.045 229.333 240.979 207.733 234.845 189.6C228.712 171.2 221.645 157.6 213.645 148.8C205.912 140 196.445 133.067 185.245 128C174.045 122.667 165.112 119.6 158.445 118.8C151.779 118 144.045 117.6 135.245 117.6C126.445 117.6 117.912 118 109.645 118.8V390.8ZM473.367 394H321.367V114H354.567V390H473.367V394Z" fill="#F9F9F9"/>
    <line x1="24.9724" y1="67.5001" x2="495.972" y2="65.5001" stroke="#FAF9F5" stroke-width="13"/>
    <line x1="24.9724" y1="444.5" x2="495.972" y2="442.5" stroke="#FAF9F5" stroke-width="13"/>
    </g>
    <defs>
    <clipPath id="clip0_462_76">
    <rect width="521" height="521" fill="white"/>
    </clipPath>
    </defs>
</svg>
