<?xml version="1.0" encoding="utf-8"?>
<svg xmlns="http://www.w3.org/2000/svg">
 <symbol viewBox="0 0 24 24" id="about-us">
  <path d="m12.594 23.258-.012.002-.071.035-.02.004-.014-.004-.071-.036q-.016-.004-.024.006l-.004.01-.017.428.005.02.01.013.104.074.015.004.012-.004.104-.074.012-.016.004-.017-.017-.427q-.004-.016-.016-.018m.264-.113-.014.002-.184.093-.01.01-.003.011.018.43.005.012.008.008.201.092q.019.005.029-.008l.004-.014-.034-.614q-.005-.019-.02-.022m-.715.002a.02.02 0 0 0-.027.006l-.006.014-.034.614q.001.018.017.024l.015-.002.201-.093.01-.008.003-.011.018-.43-.003-.012-.01-.01zM12 12c1.873 0 3.57.62 4.815 1.487 1.183.825 2.185 2.051 2.185 3.37 0 .724-.309 1.324-.796 1.77-.458.421-1.056.694-1.672.88C15.301 19.88 13.68 20 12 20s-3.301-.12-4.532-.493c-.616-.186-1.214-.459-1.673-.88C5.31 18.182 5 17.582 5 16.858c0-1.319 1.002-2.545 2.185-3.37C8.43 12.62 10.127 12 12 12m7 1c1.044 0 1.992.345 2.693.833.64.447 1.307 1.19 1.307 2.096 0 .517-.225.946-.56 1.253-.306.281-.684.446-1.029.55-.47.142-1.025.215-1.601.247.122-.345.19-.72.19-1.122 0-1.535-.959-2.839-2.032-3.744A4.8 4.8 0 0 1 19 13M5 13q.537.002 1.032.113C4.96 14.018 4 15.322 4 16.857c0 .402.068.777.19 1.122-.576-.032-1.13-.105-1.601-.247-.345-.104-.723-.269-1.03-.55A1.68 1.68 0 0 1 1 15.93c0-.905.666-1.649 1.307-2.096A4.76 4.76 0 0 1 5 13m13.5-6a2.5 2.5 0 1 1 0 5 2.5 2.5 0 0 1 0-5m-13 0a2.5 2.5 0 1 1 0 5 2.5 2.5 0 0 1 0-5M12 3a4 4 0 1 1 0 8 4 4 0 0 1 0-8"></path>
 </symbol>
 <symbol viewBox="0 0 512 512" id="blog">
  <path d="M439.91 112h-23.82a.09.09 0 0 0-.09.09V416a32 32 0 0 0 32 32 32 32 0 0 0 32-32V152.09A40.09 40.09 0 0 0 439.91 112"></path>
  <path d="M384 416V72a40 40 0 0 0-40-40H72a40 40 0 0 0-40 40v352a56 56 0 0 0 56 56h342.85a1.14 1.14 0 0 0 1.15-1.15 1.14 1.14 0 0 0-.85-1.1A64.11 64.11 0 0 1 384 416M96 128a16 16 0 0 1 16-16h64a16 16 0 0 1 16 16v64a16 16 0 0 1-16 16h-64a16 16 0 0 1-16-16Zm208 272H112.45c-8.61 0-16-6.62-16.43-15.23A16 16 0 0 1 112 368h191.55c8.61 0 16 6.62 16.43 15.23A16 16 0 0 1 304 400m0-64H112.45c-8.61 0-16-6.62-16.43-15.23A16 16 0 0 1 112 304h191.55c8.61 0 16 6.62 16.43 15.23A16 16 0 0 1 304 336m0-64H112.45c-8.61 0-16-6.62-16.43-15.23A16 16 0 0 1 112 240h191.55c8.61 0 16 6.62 16.43 15.23A16 16 0 0 1 304 272m0-64h-63.55c-8.61 0-16-6.62-16.43-15.23A16 16 0 0 1 240 176h63.55c8.61 0 16 6.62 16.43 15.23A16 16 0 0 1 304 208m0-64h-63.55c-8.61 0-16-6.62-16.43-15.23A16 16 0 0 1 240 112h63.55c8.61 0 16 6.62 16.43 15.23A16 16 0 0 1 304 144"></path>
 </symbol>
 <symbol viewBox="0 0 24 24" id="arrow-rh">
  <path d="M5.536 21.886a1 1 0 0 0 1.033-.064l13-9a1 1 0 0 0 0-1.644l-13-9A1 1 0 0 0 5 3v18a1 1 0 0 0 .536.886"></path>
 </symbol>
 <symbol viewBox="0 0 24 24" id="arrow-up">
  <path d="M16.21 16H7.79a1.76 1.76 0 0 1-1.59-1 2.1 2.1 0 0 1 .26-2.21l4.21-5.1a1.76 1.76 0 0 1 2.66 0l4.21 5.1A2.1 2.1 0 0 1 17.8 15a1.76 1.76 0 0 1-1.59 1M8 14h7.9L12 9.18Z"></path>
 </symbol>
 <symbol viewBox="0 0 24 24" id="email">
  <path d="M21 12.13c-.15.01-.29.06-.39.17l-1 1 2.05 2 1-1c.22-.21.22-.56 0-.77l-1.24-1.23a.56.56 0 0 0-.38-.17m-2 1.75L13 19.94V22h2.06l6.06-6.07M20 4H4a2 2 0 0 0-2 2v12a2 2 0 0 0 2 2h7v-.89l8.24-8.22c.47-.49 1.12-.76 1.8-.76.34 0 .68.06 1 .19V6c0-1.12-.92-2-2.04-2m0 4-8 5-8-5V6l8 5 8-5"></path>
 </symbol>
 <symbol viewBox="0 0 24 24" id="info">
  <path fill-rule="evenodd" d="M12 1C5.925 1 1 5.925 1 12s4.925 11 11 11 11-4.925 11-11S18.075 1 12 1m-.5 5a1 1 0 1 0 0 2h.5a1 1 0 1 0 0-2zM10 10a1 1 0 1 0 0 2h1v3h-1a1 1 0 1 0 0 2h4a1 1 0 1 0 0-2h-1v-4a1 1 0 0 0-1-1z" clip-rule="evenodd"></path>
 </symbol>
 <symbol viewBox="0 0 16 16" id="instragram">
  <path d="M8 5.67C6.71 5.67 5.67 6.72 5.67 8S6.72 10.33 8 10.33 10.33 9.28 10.33 8 9.28 5.67 8 5.67M15 8c0-.97 0-1.92-.05-2.89-.05-1.12-.31-2.12-1.13-2.93-.82-.82-1.81-1.08-2.93-1.13C9.92 1 8.97 1 8 1s-1.92 0-2.89.05c-1.12.05-2.12.31-2.93 1.13C1.36 3 1.1 3.99 1.05 5.11 1 6.08 1 7.03 1 8s0 1.92.05 2.89c.05 1.12.31 2.12 1.13 2.93.82.82 1.81 1.08 2.93 1.13C6.08 15 7.03 15 8 15s1.92 0 2.89-.05c1.12-.05 2.12-.31 2.93-1.13.82-.82 1.08-1.81 1.13-2.93.06-.96.05-1.92.05-2.89m-7 3.59c-1.99 0-3.59-1.6-3.59-3.59S6.01 4.41 8 4.41s3.59 1.6 3.59 3.59-1.6 3.59-3.59 3.59m3.74-6.49c-.46 0-.84-.37-.84-.84s.37-.84.84-.84.84.37.84.84a.8.8 0 0 1-.24.59.8.8 0 0 1-.59.24Z"></path>
 </symbol>
 <symbol viewBox="0 0 16 16" id="linkedin">
  <path fill-rule="evenodd" d="M3 1a2 2 0 0 0-2 2v10a2 2 0 0 0 2 2h10a2 2 0 0 0 2-2V3a2 2 0 0 0-2-2zm1.102 4.297a1.195 1.195 0 1 0 0-2.39 1.195 1.195 0 0 0 0 2.39m1 7.516V6.234h-2v6.579zM6.43 6.234h2v.881c.295-.462.943-1.084 2.148-1.084 1.438 0 2.219.953 2.219 2.766 0 .087.008.484.008.484v3.531h-2v-3.53c0-.485-.102-1.438-1.18-1.438-1.079 0-1.17 1.198-1.195 1.982v2.986h-2z" clip-rule="evenodd"></path>
 </symbol>
 <symbol viewBox="0 0 20 20" id="cellphone">
  <path d="M9.421 17H7a1 1 0 0 1-1-1V4a1 1 0 0 1 1-1h6a1 1 0 0 1 1 1v5.022a5.6 5.6 0 0 1 1 0V4a2 2 0 0 0-2-2H7a2 2 0 0 0-2 2v12a2 2 0 0 0 2 2h2.117zm5.079 2a4.5 4.5 0 1 0-3.937-2.318l-.544 1.789a.41.41 0 0 0 .51.51l1.79-.544A4.5 4.5 0 0 0 14.5 19M12 13.5a.5.5 0 0 1 .5-.5h4a.5.5 0 0 1 0 1h-4a.5.5 0 0 1-.5-.5m.5 2.5a.5.5 0 0 1 0-1h2a.5.5 0 0 1 0 1z"></path>
 </symbol>
 <symbol viewBox="0 0 100 100" id="map">
  <path d="m70.387 70-3.854 7.247 18.87-3.085c-3.808-1.91-8.963-3.275-15.016-4.162m-48.61 1.58C13.037 73.885 7.5 77.662 7.5 83.272a8.4 8.4 0 0 0 .774 3.497l30.285-4.95zM91.79 80l-42.15 6.87 11.116 12.646C79.01 97.881 92.5 92.05 92.5 83.272c0-1.17-.252-2.257-.71-3.271m-49.272 8.055-28.48 4.655C21.566 97.374 34.853 100 50 100c.918 0 1.815-.026 2.719-.045z"/><path fill="currentColor" d="M50.002 0c-16.3 0-29.674 13.333-29.674 29.596 0 6.252 1.987 12.076 5.342 16.865l19.234 33.25.082.107c.759.991 1.5 1.773 2.37 2.348.87.576 1.95.92 3.01.814 2.118-.212 3.415-1.708 4.646-3.376l.066-.086 21.234-36.141.012-.023c.498-.9.866-1.816 1.178-2.708a29.3 29.3 0 0 0 2.17-11.05C79.672 13.333 66.302 0 50.002 0m0 17.045c7.071 0 12.59 5.509 12.59 12.55 0 7.043-5.519 12.55-12.59 12.55-7.072 0-12.594-5.508-12.594-12.55 0-7.04 5.523-12.55 12.594-12.55" color="currentColor"/>
 </symbol>
 <symbol viewBox="0 0 24 24" id="location">
	 <path d="M7.5 2.717 2 5.926V21.5l5.5-2.267zm2 16.193 1.75 1.033V16.75a6.75 6.75 0 0 1 3.25-5.773V5.091l-5-2.953zM22 2.5v8.812a6.77 6.77 0 0 0-5.5-1.145v-5.4zm-4 21.201-.203-.134c-.184-.121-.368-.242-.547-.372a13 13 0 0 1-1.865-1.677c-.995-1.094-2.135-2.767-2.135-4.768a4.75 4.75 0 1 1 9.5 0c0 2.001-1.14 3.674-2.135 4.768a13 13 0 0 1-1.865 1.677c-.179.13-.363.25-.547.372zM19.25 16h-2.5v2h2.5z"/>
 </symbol>
 <symbol viewBox="0 0 32 32" id="facebook">
  <path d="M32 16c0-8.839-7.167-16-16-16C7.161 0 0 7.161 0 16c0 7.984 5.849 14.604 13.5 15.803V20.626H9.437v-4.625H13.5v-3.527c0-4.009 2.385-6.223 6.041-6.223 1.751 0 3.584.312 3.584.312V10.5h-2.021c-1.984 0-2.604 1.235-2.604 2.5v3h4.437l-.713 4.625H18.5v11.177C26.145 30.603 32 23.983 32 15.999z"></path>
 </symbol>
 <symbol viewBox="0 0 24 24" id="arrow-lf">
  <path d="m4.431 12.822 13 9A1 1 0 0 0 19 21V3a1 1 0 0 0-1.569-.823l-13 9a1.003 1.003 0 0 0 0 1.645"></path>
 </symbol>
 <symbol viewBox="0 0 24 24" id="close">
  <path fill-rule="evenodd" d="M12,14.1l5.3,5.3c0.6,0.6,1.5,0.6,2.1,0s0.6-1.5,0-2.1L14.1,12l5.3-5.3c0.6-0.6,0.6-1.5,0-2.1s-1.5-0.6-2.1,0  L12,9.9L6.7,4.6C6.1,4,5.2,4,4.6,4.5S4,6.1,4.5,6.7c0,0,0,0,0,0L9.9,12l-5.3,5.3c-0.6,0.6-0.6,1.5,0,2.1c0.6,0.6,1.5,0.6,2.1,0  c0,0,0,0,0,0L12,14.1z"></path>
 </symbol>
 <symbol viewBox="0 0 24 24" id="home">
  <path d="M10 19v-5h4v5c0 .55.45 1 1 1h3c.55 0 1-.45 1-1v-7h1.7c.46 0 .68-.57.33-.87L12.67 3.6c-.38-.34-.96-.34-1.34 0l-8.36 7.53c-.34.3-.13.87.33.87H5v7c0 .55.45 1 1 1h3c.55 0 1-.45 1-1"></path>
 </symbol>
 <symbol viewBox="0 0 24 24" id="menu">
  <path d="M20,17.5c0.8,0,1.5,0.7,1.5,1.5c0,0.8-0.6,1.4-1.4,1.5l-0.1,0H4c-0.8,0-1.5-0.7-1.5-1.5c0-0.8,0.6-1.4,1.4-1.5l0.1,0H20z   M20,10.5c0.8,0,1.5,0.7,1.5,1.5s-0.7,1.5-1.5,1.5H4c-0.8,0-1.5-0.7-1.5-1.5s0.7-1.5,1.5-1.5H20z M20,3.5c0.8,0,1.5,0.7,1.5,1.5  S20.8,6.5,20,6.5H4C3.2,6.5,2.5,5.8,2.5,5S3.2,3.5,4,3.5H20z"></path>
 </symbol>
 <symbol viewBox="0 0 24 24" id="external-link">
  <path d="M19 13v6a2 2 0 0 1-2 2H5a2 2 0 0 1-2-2V7a2 2 0 0 1 2-2h6v2H5v12h12v-6zM13 3v2h4.586l-7.793 7.793 1.414 1.414L19 6.414V11h2V3z"></path>
 </symbol>
 <symbol viewBox="0 0 20 20" id="phone">
  <path d="M10 2a4 4 0 1 0 0 8 4 4 0 0 0 0-8m-4.991 9A2 2 0 0 0 3 13c0 1.691.833 2.966 2.135 3.797C6.417 17.614 8.145 18 10 18q.536 0 1.056-.043a2.2 2.2 0 0 1 .516-1.975l.545-.607a2.07 2.07 0 0 1 2.009-.629l.785.186c.378-.312.607-.68.712-1.121l-.518-.506a1.94 1.94 0 0 1-.457-2.077l.086-.228zm10.575.582.283-.75c.258-.681 1.062-1.017 1.74-.728l.388.166c.473.202.864.568.947 1.06.457 2.725-1.908 6.601-4.63 7.59-.492.178-1.023.04-1.445-.246l-.346-.235a1.184 1.184 0 0 1-.204-1.79l.545-.607a1.07 1.07 0 0 1 1.034-.323l1.225.29q1.457-.91 1.562-2.56l-.878-.859a.94.94 0 0 1-.221-1.008"></path>
 </symbol>
 <symbol viewBox="0 0 14 14" id="services-lg">
  <path fill-rule="evenodd" d="M3.877 6.266a1.5 1.5 0 0 1 0-2.122L7.462.56a1.5 1.5 0 0 1 2.122 0l1.583 1.584a1.5 1.5 0 0 1 0 2.121L9.91 5.521 13.7 9.31a.75.75 0 1 1-1.062 1.06L8.85 6.583 7.582 7.85a1.5 1.5 0 0 1-2.12 0zM1.331 12.38h-.5a.75.75 0 0 0 0 1.5h7.5a.75.75 0 0 0 0-1.5h-.5v-1.75a.5.5 0 0 0-.5-.5h-5.5a.5.5 0 0 0-.5.5z" clip-rule="evenodd"></path>
 </symbol>
 <symbol viewBox="0 0 48 48" id="search">
  <g stroke-linejoin="round" stroke-width="4">
   <path d="M21 38c9.389 0 17-7.611 17-17S30.389 4 21 4 4 11.611 4 21s7.611 17 17 17"></path>
   <path d="M26.657 14.343A7.98 7.98 0 0 0 21 12a7.98 7.98 0 0 0-5.657 2.343m17.879 18.879 8.485 8.485"></path>
  </g>
 </symbol>
 <symbol viewBox="0 0 24 24" id="phone-call">
  <path d="M20 10.999h2C22 5.869 18.127 2 12.99 2v2C17.052 4 20 6.943 20 10.999"></path>
  <path d="M13 8c2.103 0 3 .897 3 3h2c0-3.225-1.775-5-5-5zm3.422 5.443a1 1 0 0 0-1.391.043l-2.393 2.461c-.576-.11-1.734-.471-2.926-1.66-1.192-1.193-1.553-2.354-1.66-2.926l2.459-2.394a1 1 0 0 0 .043-1.391L6.859 3.513a1 1 0 0 0-1.391-.087l-2.17 1.861a1 1 0 0 0-.29.649c-.015.25-.301 6.172 4.291 10.766C11.305 20.707 16.323 21 17.705 21c.202 0 .326-.006.359-.008a1 1 0 0 0 .648-.291l1.86-2.171a1 1 0 0 0-.086-1.391z"></path>
 </symbol>
 <symbol viewBox="0 0 24 24" id="time">
  <path d="M18 4H2V2h16zm-.5 9H16v5l3.61 2.16.75-1.22-2.86-1.69zm6.5 4c0 3.87-3.13 7-7 7-3.53 0-6.43-2.61-6.92-6H2v-6H1v-2l1-5h16l1 5v.29c2.89.87 5 3.54 5 6.71M4 16h6v-4H4zm18 1c0-2.76-2.24-5-5-5s-5 2.24-5 5 2.24 5 5 5 5-2.24 5-5"></path>
 </symbol>
 <symbol viewBox="0 0 24 24" id="contact">
  <path d="M21 2H6a2 2 0 0 0-2 2v3H2v2h2v2H2v2h2v2H2v2h2v3a2 2 0 0 0 2 2h15a1 1 0 0 0 1-1V3a1 1 0 0 0-1-1m-8 2.999c1.648 0 3 1.351 3 3A3.01 3.01 0 0 1 13 11c-1.647 0-3-1.353-3-3.001 0-1.649 1.353-3 3-3M19 18H7v-.75c0-2.219 2.705-4.5 6-4.5s6 2.281 6 4.5z"></path>
 </symbol>
 <symbol viewBox="0 0 24 24" id="thin-arrow-rh">
  <path d="M8.59 16.58 13.17 12 8.59 7.41 10 6l6 6-6 6z"></path>
 </symbol>
 <symbol viewBox="0 0 24 24" id="customer-service">
  <path d="M21 8a2 2 0 0 1 2 2v4a2 2 0 0 1-2 2h-1.062A8 8 0 0 1 12 23v-2a6 6 0 0 0 6-6V9A6 6 0 0 0 6 9v7H3a2 2 0 0 1-2-2v-4a2 2 0 0 1 2-2h1.062a8.001 8.001 0 0 1 15.876 0zM7.76 15.785l1.06-1.696A5.97 5.97 0 0 0 12 15a5.97 5.97 0 0 0 3.18-.911l1.06 1.696A7.96 7.96 0 0 1 12 17a7.96 7.96 0 0 1-4.24-1.215"></path>
 </symbol>
 <symbol viewBox="0 0 24 24" id="thin-arrow-lf">
  <path d="m14 18-6-6 6-6 1.4 1.4-4.6 4.6 4.6 4.6z"></path>
 </symbol>
  <symbol viewBox="0 0 24 24" id="thin-arrow-rh">
    <path d="M8.59 16.58 13.17 12 8.59 7.41 10 6l6 6-6 6z"></path>
  </symbol>
  <symbol viewBox="0 0 24 24" id="time">
    <path d="M18 4H2V2h16zm-.5 9H16v5l3.61 2.16.75-1.22-2.86-1.69zm6.5 4c0 3.87-3.13 7-7 7-3.53 0-6.43-2.61-6.92-6H2v-6H1v-2l1-5h16l1 5v.29c2.89.87 5 3.54 5 6.71M4 16h6v-4H4zm18 1c0-2.76-2.24-5-5-5s-5 2.24-5 5 2.24 5 5 5 5-2.24 5-5"></path>
  </symbol>
  <symbol viewBox="0 0 16 16" id="whatsapp">
    <path d="M13.95 4.24C11.86 1 7.58.04 4.27 2.05 1.04 4.06 0 8.44 2.09 11.67l.17.26-.7 2.62 2.62-.7.26.17c1.13.61 2.36.96 3.58.96 1.31 0 2.62-.35 3.75-1.05 3.23-2.1 4.19-6.39 2.18-9.71Zm-1.83 6.74c-.35.52-.79.87-1.4.96-.35 0-.79.17-2.53-.52-1.48-.7-2.71-1.84-3.58-3.15-.52-.61-.79-1.4-.87-2.19 0-.7.26-1.31.7-1.75.17-.17.35-.26.52-.26h.44c.17 0 .35 0 .44.35.17.44.61 1.49.61 1.58.09.09.05.76-.35 1.14-.22.25-.26.26-.17.44.35.52.79 1.05 1.22 1.49.52.44 1.05.79 1.66 1.05.17.09.35.09.44-.09.09-.17.52-.61.7-.79.17-.17.26-.17.44-.09l1.4.7c.17.09.35.17.44.26.09.26.09.61-.09.87Z"></path>
  </symbol>
  <symbol viewBox="0 0 16 16" id="x">
    <path d="M12.6.75h2.454l-5.36 6.142L16 15.25h-4.937l-3.867-5.07-4.425 5.07H.316l5.733-6.57L0 .75h5.063l3.495 4.633L12.601.75Zm-.86 13.028h1.36L4.323 2.145H2.865z"></path>
  </symbol>
 <symbol viewBox="0 0 24 24" id="youtube">
  <path fill-rule="evenodd" d="m12.593 23.258-.011.002-.071.035-.02.004-.014-.004-.071-.035q-.016-.005-.024.005l-.004.01-.017.428.005.02.01.013.104.074.015.004.012-.004.104-.074.012-.016.004-.017-.017-.427q-.004-.016-.017-.018m.265-.113-.013.002-.185.093-.01.01-.003.011.018.43.005.012.008.007.201.093q.019.005.029-.008l.004-.014-.034-.614q-.005-.018-.02-.022m-.715.002a.02.02 0 0 0-.027.006l-.006.014-.034.614q.001.018.017.024l.015-.002.201-.093.01-.008.004-.011.017-.43-.003-.012-.01-.01zM12 4c.855 0 1.732.022 2.582.058l1.004.048.961.057.9.061.822.064a3.8 3.8 0 0 1 3.494 3.423l.04.425.075.91c.07.943.122 1.971.122 2.954s-.052 2.011-.122 2.954l-.075.91-.04.425a3.8 3.8 0 0 1-3.495 3.423l-.82.063-.9.062-.962.057-1.004.048A62 62 0 0 1 12 20a62 62 0 0 1-2.582-.058l-1.004-.048-.961-.057-.9-.062-.822-.063a3.8 3.8 0 0 1-3.494-3.423l-.04-.425-.075-.91A41 41 0 0 1 2 12c0-.983.052-2.011.122-2.954l.075-.91.04-.425A3.8 3.8 0 0 1 5.73 4.288l.821-.064.9-.061.962-.057 1.004-.048A62 62 0 0 1 12 4m-2 5.575v4.85c0 .462.5.75.9.52l4.2-2.425a.6.6 0 0 0 0-1.04l-4.2-2.424a.6.6 0 0 0-.9.52Z"></path>
 </symbol>
 <symbol viewBox="0 0 24 24" id="send-msj">
	<path d="M20.04 2.323c1.016-.355 1.992.621 1.637 1.637l-5.925 16.93c-.385 1.098-1.915 1.16-2.387.097l-2.859-6.432l4.024-4.025a.75.75 0 0 0-1.06-1.06l-4.025 4.024l-6.432-2.859c-1.063-.473-1-2.002.097-2.387z" />
</symbol>
<symbol viewBox="0 0 24 24" id="read">
  <path d="M9.075 13H3q-.425 0-.712-.288T2 12t.288-.712T3 11h6.075L6.75 8.65q-.275-.275-.288-.687t.288-.713q.275-.275.7-.275t.7.275l4.05 4.05q.3.3.3.7t-.3.7l-4.05 4.05q-.275.275-.687.288t-.713-.288q-.275-.275-.275-.7t.275-.7zM14 17q-.425 0-.712-.288T13 16t.288-.712T14 15h7q.425 0 .713.288T22 16t-.288.713T21 17zm0-8q-.425 0-.712-.288T13 8t.288-.712T14 7h7q.425 0 .713.288T22 8t-.288.713T21 9zm3 4q-.425 0-.712-.288T16 12t.288-.712T17 11h4q.425 0 .713.288T22 12t-.288.713T21 13z"/>
</symbol>
<symbol viewBox="0 0 24 24" id="calendar">
  <path fill="currentColor" d="M7 1v2H3a1 1 0 0 0-1 1v16a1 1 0 0 0 1 1h7.755A8 8 0 0 1 22 9.755V4a1 1 0 0 0-1-1h-4V1h-2v2H9V1zm16 15a6 6 0 1 1-12 0 6 6 0 0 1 12 0m-7-4v4.414l2.293 2.293 1.414-1.414L18 15.586V12z"/>
</symbol>
<symbol viewBox="0 0 64 64" id="flag-ec">
  <path fill="#2a5f9e" d="M62 32H2c0 5.5 1.5 10.6 4 15h52c2.5-4.4 4-9.5 4-15"/><path fill="#ffe62e" d="M32 2C15.4 2 2 15.4 2 32h60C62 15.4 48.6 2 32 2"/><path fill="#ed4c5c" d="M32 62c11.1 0 20.8-6 26-15H6c5.2 9 14.9 15 26 15"/><path fill="#034ea2" d="m25.383 29.553.802.82.344-.937.115-.586c-.115-1.64 0-3.28 0-3.28l.23.235-.918-.937-.573-.585z"/><path fill="#ed1c24" d="m26.644 28.85.802-2.46-.802-.82z"/><path fill="#fd0" d="m25.383 24.283.573.585-2.751-2.81c-.115-.118-.115 2.459-.115 5.27l2.293 2.342z"/><path fill="#fd0" d="M26.185 39.508c-1.948-1.171-2.178-4.802-2.178-5.388v-6.324l.574.586-2.752-2.811c-.229-.234 0 7.612 0 11.009 0 1.64 1.032 7.378 6.764 4.45 0 0 2.866-1.054 3.783-2.342h-.573c-.115.117-.23.117-.344.117-3.325 2.342-5.274.703-5.274.703"/><path fill="#034ea2" d="M24.007 34.12c0 .469.23 4.1 2.064 5.27 0 0 1.949 1.64 5.388-.585-1.032.469-1.834.469-2.408.351-1.605-.468-3.324-2.342-3.553-4.333-.23-1.99-.23-5.739-.23-5.739l.23.235-.917-.937-.574-.469z"/><path fill="#ed1c24" d="M26.415 31.661v-1.523c-.344-.35.114.118-.803-.82l-.229-.234v.118c0 .468 0 3.864.23 5.621.229 1.991 1.948 3.865 3.553 4.333.573.118 1.376.118 2.407-.35.115 0 .115-.118.23-.118-3.096-.351-5.044-3.162-5.388-7.027"/><path fill="#fd0" d="M37.878 39.625c1.835-1.171 2.179-4.802 2.064-5.27V28.03l-.573.586 2.751-2.81c.23-.235 0 7.612 0 11.008 0 1.64-1.032 7.378-6.764 4.45 0 0-2.866-1.053-3.783-2.342h.574c.114 0 .229.117.229.117 3.554 2.226 5.502.586 5.502.586"/><path fill="#034ea2" d="M39.942 34.238c0 .468-.23 4.099-2.064 5.27 0 0-1.948 1.64-5.388-.586 1.032.469 1.835.469 2.408.352 1.605-.469 3.324-2.343 3.554-4.334s.229-5.738.229-5.738l-.23.234.918-.937.573-.586z"/><path fill="#ed1c24" d="M37.65 31.778v-1.522l.802-.82.229-.234v.117c0 .468 0 3.864-.23 5.621-.229 1.991-1.834 3.865-3.553 4.45-.573.118-1.376.118-2.408-.35-.114 0-.114-.118-.229-.118 2.98-.468 5.044-3.279 5.388-7.144"/><path fill="#8cddea" d="M26.3 31c0 4.1 2.6 7.4 5.7 7.4s5.7-3.3 5.7-7.4-2.6-7.4-5.7-7.4-5.7 3.4-5.7 7.4"/><path fill="#6dd337" d="M26.3 31.3c0 4.1 2.6 7.4 5.7 7.4 3.2 0 5.7-3.3 5.7-7.4z"/><path fill="#557176" d="m26.5 31.5 10.8.2.1-.8c0-.1.2-.2-.1-.2-1.2-.1-.7-.2-1.4-.2-.2 0-4.8-1.1-5.2-1.1-.4-.1-4 .5-4 .5z"/><path fill="#fff" d="m26.4 29.6 1.7.7s2.2-.4 2.4-.3 2.1.4 2.2.4h2.9-.1c-.2-.1-2.4-.7-2.6-.8-.1-.1-1.8-.7-1.9-.9-.2-.2-1.4-.9-1.6-.9-.2-.1-3 1.8-3 1.8"/><path fill="#b1babf" d="M34.4 23.8s-1.1-.7-2.5-.7c-1.1 0-2.2.6-2.2.6-1.2.7-2.2 2-2.8 3.6-.4 1.1-.7 2.4-.7 3.7 0 3.9 2.1 6.9 4.8 7.7 0 0 .4.2.9.2s1-.1 1-.1c2.7-.7 4.9-3.8 4.9-7.7 0-5.1-3.9-7.7-3.4-7.3M33 38.3s-.5.1-1 .1-1-.1-1-.1c-2.4-.7-4.3-3.6-4.3-7.1 0-1.2.3-2.5.7-3.5.6-1.4 1.5-2.6 2.6-3.2 0 0 1.1-.7 2-.7 1.3 0 2.3.7 2.3.7 1.8 1.1 3.1 3.7 3.1 6.6-.1 3.6-2 6.6-4.4 7.2"/><path fill="#034ea2" d="m28.6 31.2 1.7 2.3-2.6 1.5s.2.6.7 1.3c.5.6 1.7 1.9 2.8 2 1.2.1 2 .1 2.7-.3.6-.4 1.5-.9 2.1-1.9.6-.9.6-1.1.6-1.1s-3.8-.8-3.9-.8c-.1-.1-3.7-2.9-3.8-3s.8-1.2.8-1.2z"/><path fill="#ed1c24" d="M31.1 39.8H33v4.9h-1.9z"/><path fill="#034ea2" d="M29.6 40.2h1.9v4.9h-1.9zm2.9 0h1.9v4.9h-1.9z"/><path fill="#fd0" d="M29.2 40.2h1.2v6.2h-1.2zm4.4 0h1.2v6.2h-1.2z"/><path fill="#fff" d="M27.5 38.1h9v2.4h-9z"/><path fill="#594640" d="M37.6 18.5c-1.8 0-3.7 2-5.6 2s-3.8-2-5.6-2c-1.7 0-8.4 2-8.4 2 9.3 0 14 5 14 5s4.7-5 14-5c0 0-6.7-2-8.4-2"/><circle cx="32" cy="19.7" r="1.2" fill="#f9f9f9"/>
</symbol>

<symbol viewBox="0 0 24 24" id="maps-duotone">
  <path d="M17.608 21 15.134 7.81 4 8.822V17.8c0 1.12 0 1.68.218 2.108a2 2 0 0 0 .874.874C5.52 21 6.08 21 7.2 21zM13.5 15.03c0 2.158-2.14 3.674-3.073 4.233a.83.83 0 0 1-.854 0C8.64 18.704 6.5 17.188 6.5 15.029c0-2.117 1.696-3.529 3.5-3.529 1.867 0 3.5 1.412 3.5 3.53" clip-rule="evenodd"/><path  fill-opacity=".25" d="M4.218 4.092C4 4.52 4 5.08 4 6.2v.614l17.99-1.636c-.019-.488-.07-.814-.208-1.086a2 2 0 0 0-.874-.874C20.48 3 19.92 3 18.8 3H7.2c-1.12 0-1.68 0-2.108.218a2 2 0 0 0-.874.874M22 7.186l-4.865.442 2.506 13.367c.592-.013.963-.058 1.267-.213a2 2 0 0 0 .874-.874C22 19.48 22 18.92 22 17.8z"/><circle cx="10" cy="15" r="1" fill="currentColor"/>
</symbol>

<symbol viewBox="0 0 24 24" id="question" >
	<path d="M4 2h16a2 2 0 0 1 2 2v12a2 2 0 0 1-2 2h-6.1l-3.7 3.71c-.2.19-.45.29-.7.29H9a1 1 0 0 1-1-1v-3H4a2 2 0 0 1-2-2V4a2 2 0 0 1 2-2m8.19 3.5c-.89 0-1.6.18-2.14.54c-.55.36-.83.96-.78 1.65h1.97c0-.28.1-.49.26-.63c.2-.14.42-.21.69-.21c.31 0 .58.08.76.26c.18.17.27.39.27.69c0 .28-.08.53-.22.74c-.17.22-.38.4-.64.54c-.52.32-.86.6-1.07.84c-.19.24-.29.58-.29 1.08h2c0-.28.05-.5.14-.68c.09-.17.26-.32.52-.47c.46-.21.84-.49 1.13-.85c.29-.37.44-.76.44-1.2q0-1.05-.81-1.68c-.54-.41-1.29-.62-2.23-.62M11 12v2h2v-2z" />
</symbol>

<symbol viewBox="0 0 512 512" id="justice">
	<path  d="M403.438 23.08s-70.897 56.757-118.08 70.513s-70.642-15.469-70.642-15.469s14.65 34.485-19.828 69.494c-34.482 35.01-118.112 70.531-118.112 70.531l-2.366 13.93l6.452 8.121L29.36 376.606c-.6 1.101-.593 2.104-.593 3.313c0 18.897 8.252 34.243 20.343 44c12.09 9.758 27.564 14.31 42.938 14.312c15.376.003 30.877-4.555 42.969-14.312s20.343-25.094 20.343-44c.198-1.352-.192-2.316-.687-3.531L99.735 241.76c.059-1.373.239-2.845 1.551-6.002c20.336-15.642 69.497-51.446 106.305-61.696c18.947-5.273 35.577.53 35.015 6.936L215.87 369.577l21.406 30.31c-17.75 7.75-32.593 24.84-37.562 51.344c-56.076 6.195-95.469 20.742-95.469 37.69H416.12c0-16.947-39.392-31.495-95.467-37.69c-4.91-26.6-19.57-44.112-37.187-51.906l21-29.75l-30.737-194.596c4.17-19.161 18.107-42.676 28.875-57.654c16.23-22.415 108.224-65.652 109.659-64.096l-54.938 134.627c-.495 1.216-.885 2.18-.687 3.532c0 18.906 8.251 34.244 20.343 44s27.595 14.315 42.971 14.312c15.374-.003 30.846-4.554 42.936-14.312s20.345-25.103 20.345-44c0-1.21.004-2.212-.595-3.313L430.796 50.763c.97-4.868 3.99-8.561 7.094-12.034l-11.833-14.786zm18.264 56.526l40.936 108.375h-85.155zM90.296 268.138l44.22 108.375H49.36z" />
</symbol>

</svg>