<svg width="250" height="250" viewBox="0 0 250 250" fill="none" xmlns="http://www.w3.org/2000/svg">
    <g clip-path="url(#clip0_165_68)">
    <rect width="250" height="250" fill="white"/>
    <rect width="250" height="250" rx="20" fill="#D9D9D9"/>
    <path d="M48.2227 53.2C54.0893 52.9333 59.8227 52.8 65.4227 52.8C71.156 52.8 77.156 53.4 83.4227 54.6C89.8227 55.8 96.0893 58.0667 102.223 61.4C108.489 64.6 113.756 68.8 118.023 74C122.423 79.0667 125.956 85.8 128.623 94.2C131.289 102.6 132.623 112.8 132.623 124.8C132.623 136.8 130.623 147.6 126.623 157.2C122.756 166.667 117.423 173.933 110.623 179C97.4227 188.867 81.4893 193.8 62.8227 193.8C56.2893 193.8 49.4227 193.533 42.2227 193H32.2227V53.2H48.2227ZM48.8227 191.4C51.6227 191.667 55.156 191.8 59.4227 191.8C63.6893 191.8 66.8893 191.733 69.0227 191.6C71.156 191.467 74.0893 190.933 77.8227 190C81.556 188.933 85.0227 187.533 88.2227 185.8C91.4227 184.067 94.756 181.533 98.2227 178.2C101.823 174.733 104.889 170.667 107.423 166C113.156 155.067 116.023 140.8 116.023 123.2C116.023 110.667 114.489 99.8667 111.423 90.8C108.356 81.6 104.823 74.8 100.823 70.4C96.956 66 92.2227 62.5333 86.6227 60C81.0227 57.3333 76.556 55.8 73.2227 55.4C69.8893 55 66.0227 54.8 61.6227 54.8C57.2227 54.8 52.956 55 48.8227 55.4V191.4ZM230.684 193H154.684V53H171.284V191H230.684V193Z" fill="black"/>
    </g>
    <defs>
    <clipPath id="clip0_165_68">
    <rect width="250" height="250" fill="white"/>
    </clipPath>
    </defs>
</svg>
